<svg xmlns="http://www.w3.org/2000/svg" viewBox="0 0 1200 630" fill="none">
  <rect width="1200" height="630" fill="#F8FAFC"/>
  <text x="600" y="44" font-family="system-ui,sans-serif" font-size="22" font-weight="700" fill="#1B2A4A" text-anchor="middle">Provider Specialty Coverage</text>
  <!-- Grid of specialty cards -->
  <g transform="translate(40,70)">
    <!-- Row 1 -->
    <g transform="translate(0,0)">
      <rect width="215" height="100" rx="10" fill="#fff" stroke="#E2E8F0" stroke-width="1.5"/>
      <circle cx="32" cy="40" r="20" fill="#0EA5E9" opacity="0.15"/>
      <text x="32" y="46" font-family="system-ui,sans-serif" font-size="18" text-anchor="middle">🦷</text>
      <text x="62" y="36" font-family="system-ui,sans-serif" font-size="14" font-weight="600" fill="#1B2A4A">Dental</text>
      <text x="62" y="54" font-family="system-ui,sans-serif" font-size="12" fill="#64748B">195K+ providers</text>
      <rect x="12" y="72" width="190" height="6" rx="3" fill="#E2E8F0"/>
      <rect x="12" y="72" width="180" height="6" rx="3" fill="#0EA5E9"/>
    </g>
    <g transform="translate(235,0)">
      <rect width="215" height="100" rx="10" fill="#fff" stroke="#E2E8F0" stroke-width="1.5"/>
      <circle cx="32" cy="40" r="20" fill="#16a34a" opacity="0.15"/>
      <text x="32" y="46" font-family="system-ui,sans-serif" font-size="18" text-anchor="middle">🧠</text>
      <text x="62" y="36" font-family="system-ui,sans-serif" font-size="14" font-weight="600" fill="#1B2A4A">Mental Health</text>
      <text x="62" y="54" font-family="system-ui,sans-serif" font-size="12" fill="#64748B">340K+ providers</text>
      <rect x="12" y="72" width="190" height="6" rx="3" fill="#E2E8F0"/>
      <rect x="12" y="72" width="190" height="6" rx="3" fill="#16a34a"/>
    </g>
    <g transform="translate(470,0)">
      <rect width="215" height="100" rx="10" fill="#fff" stroke="#E2E8F0" stroke-width="1.5"/>
      <circle cx="32" cy="40" r="20" fill="#0EA5E9" opacity="0.15"/>
      <text x="32" y="46" font-family="system-ui,sans-serif" font-size="18" text-anchor="middle">🏥</text>
      <text x="62" y="36" font-family="system-ui,sans-serif" font-size="14" font-weight="600" fill="#1B2A4A">Primary Care</text>
      <text x="62" y="54" font-family="system-ui,sans-serif" font-size="12" fill="#64748B">290K+ providers</text>
      <rect x="12" y="72" width="190" height="6" rx="3" fill="#E2E8F0"/>
      <rect x="12" y="72" width="185" height="6" rx="3" fill="#0EA5E9"/>
    </g>
    <g transform="translate(705,0)">
      <rect width="215" height="100" rx="10" fill="#fff" stroke="#E2E8F0" stroke-width="1.5"/>
      <circle cx="32" cy="40" r="20" fill="#1B2A4A" opacity="0.15"/>
      <text x="32" y="46" font-family="system-ui,sans-serif" font-size="18" text-anchor="middle">💆</text>
      <text x="62" y="36" font-family="system-ui,sans-serif" font-size="14" font-weight="600" fill="#1B2A4A">Chiropractic</text>
      <text x="62" y="54" font-family="system-ui,sans-serif" font-size="12" fill="#64748B">75K+ providers</text>
      <rect x="12" y="72" width="190" height="6" rx="3" fill="#E2E8F0"/>
      <rect x="12" y="72" width="120" height="6" rx="3" fill="#1B2A4A"/>
    </g>
    <g transform="translate(940,0)">
      <rect width="215" height="100" rx="10" fill="#fff" stroke="#E2E8F0" stroke-width="1.5"/>
      <circle cx="32" cy="40" r="20" fill="#16a34a" opacity="0.15"/>
      <text x="32" y="46" font-family="system-ui,sans-serif" font-size="18" text-anchor="middle">✨</text>
      <text x="62" y="36" font-family="system-ui,sans-serif" font-size="14" font-weight="600" fill="#1B2A4A">Medical Spas</text>
      <text x="62" y="54" font-family="system-ui,sans-serif" font-size="12" fill="#64748B">28K+ providers</text>
      <rect x="12" y="72" width="190" height="6" rx="3" fill="#E2E8F0"/>
      <rect x="12" y="72" width="80" height="6" rx="3" fill="#16a34a"/>
    </g>
    <!-- Row 2 -->
    <g transform="translate(0,120)">
      <rect width="215" height="100" rx="10" fill="#fff" stroke="#E2E8F0" stroke-width="1.5"/>
      <circle cx="32" cy="40" r="20" fill="#0EA5E9" opacity="0.15"/>
      <text x="32" y="46" font-family="system-ui,sans-serif" font-size="18" text-anchor="middle">🦴</text>
      <text x="62" y="36" font-family="system-ui,sans-serif" font-size="14" font-weight="600" fill="#1B2A4A">Orthopedics</text>
      <text x="62" y="54" font-family="system-ui,sans-serif" font-size="12" fill="#64748B">42K+ providers</text>
      <rect x="12" y="72" width="190" height="6" rx="3" fill="#E2E8F0"/>
      <rect x="12" y="72" width="95" height="6" rx="3" fill="#0EA5E9"/>
    </g>
    <g transform="translate(235,120)">
      <rect width="215" height="100" rx="10" fill="#fff" stroke="#E2E8F0" stroke-width="1.5"/>
      <circle cx="32" cy="40" r="20" fill="#16a34a" opacity="0.15"/>
      <text x="32" y="46" font-family="system-ui,sans-serif" font-size="18" text-anchor="middle">👁️</text>
      <text x="62" y="36" font-family="system-ui,sans-serif" font-size="14" font-weight="600" fill="#1B2A4A">Eye Care</text>
      <text x="62" y="54" font-family="system-ui,sans-serif" font-size="12" fill="#64748B">58K+ providers</text>
      <rect x="12" y="72" width="190" height="6" rx="3" fill="#E2E8F0"/>
      <rect x="12" y="72" width="110" height="6" rx="3" fill="#16a34a"/>
    </g>
    <g transform="translate(470,120)">
      <rect width="215" height="100" rx="10" fill="#fff" stroke="#E2E8F0" stroke-width="1.5"/>
      <circle cx="32" cy="40" r="20" fill="#0EA5E9" opacity="0.15"/>
      <text x="32" y="46" font-family="system-ui,sans-serif" font-size="18" text-anchor="middle">🏃</text>
      <text x="62" y="36" font-family="system-ui,sans-serif" font-size="14" font-weight="600" fill="#1B2A4A">Physical Therapy</text>
      <text x="62" y="54" font-family="system-ui,sans-serif" font-size="12" fill="#64748B">115K+ providers</text>
      <rect x="12" y="72" width="190" height="6" rx="3" fill="#E2E8F0"/>
      <rect x="12" y="72" width="150" height="6" rx="3" fill="#0EA5E9"/>
    </g>
    <g transform="translate(705,120)">
      <rect width="215" height="100" rx="10" fill="#fff" stroke="#E2E8F0" stroke-width="1.5"/>
      <circle cx="32" cy="40" r="20" fill="#1B2A4A" opacity="0.15"/>
      <text x="32" y="46" font-family="system-ui,sans-serif" font-size="18" text-anchor="middle">💉</text>
      <text x="62" y="36" font-family="system-ui,sans-serif" font-size="14" font-weight="600" fill="#1B2A4A">Dermatology</text>
      <text x="62" y="54" font-family="system-ui,sans-serif" font-size="12" fill="#64748B">18K+ providers</text>
      <rect x="12" y="72" width="190" height="6" rx="3" fill="#E2E8F0"/>
      <rect x="12" y="72" width="60" height="6" rx="3" fill="#1B2A4A"/>
    </g>
    <g transform="translate(940,120)">
      <rect width="215" height="100" rx="10" fill="#fff" stroke="#E2E8F0" stroke-width="1.5"/>
      <circle cx="32" cy="40" r="20" fill="#16a34a" opacity="0.15"/>
      <text x="32" y="46" font-family="system-ui,sans-serif" font-size="18" text-anchor="middle">❤️</text>
      <text x="62" y="36" font-family="system-ui,sans-serif" font-size="14" font-weight="600" fill="#1B2A4A">Senior Care</text>
      <text x="62" y="54" font-family="system-ui,sans-serif" font-size="12" fill="#64748B">32K+ facilities</text>
      <rect x="12" y="72" width="190" height="6" rx="3" fill="#E2E8F0"/>
      <rect x="12" y="72" width="85" height="6" rx="3" fill="#16a34a"/>
    </g>
    <!-- Row 3 -->
    <g transform="translate(0,240)">
      <rect width="215" height="100" rx="10" fill="#fff" stroke="#E2E8F0" stroke-width="1.5"/>
      <circle cx="32" cy="40" r="20" fill="#0EA5E9" opacity="0.15"/>
      <text x="32" y="46" font-family="system-ui,sans-serif" font-size="18" text-anchor="middle">⚕️</text>
      <text x="62" y="36" font-family="system-ui,sans-serif" font-size="14" font-weight="600" fill="#1B2A4A">Pain Management</text>
      <text x="62" y="54" font-family="system-ui,sans-serif" font-size="12" fill="#64748B">22K+ providers</text>
      <rect x="12" y="72" width="190" height="6" rx="3" fill="#E2E8F0"/>
      <rect x="12" y="72" width="70" height="6" rx="3" fill="#0EA5E9"/>
    </g>
    <g transform="translate(235,240)">
      <rect width="215" height="100" rx="10" fill="#fff" stroke="#E2E8F0" stroke-width="1.5"/>
      <circle cx="32" cy="40" r="20" fill="#16a34a" opacity="0.15"/>
      <text x="32" y="46" font-family="system-ui,sans-serif" font-size="18" text-anchor="middle">🩺</text>
      <text x="62" y="36" font-family="system-ui,sans-serif" font-size="14" font-weight="600" fill="#1B2A4A">Neurology</text>
      <text x="62" y="54" font-family="system-ui,sans-serif" font-size="12" fill="#64748B">20K+ providers</text>
      <rect x="12" y="72" width="190" height="6" rx="3" fill="#E2E8F0"/>
      <rect x="12" y="72" width="65" height="6" rx="3" fill="#16a34a"/>
    </g>
    <g transform="translate(470,240)">
      <rect width="215" height="100" rx="10" fill="#fff" stroke="#E2E8F0" stroke-width="1.5"/>
      <circle cx="32" cy="40" r="20" fill="#0EA5E9" opacity="0.15"/>
      <text x="32" y="46" font-family="system-ui,sans-serif" font-size="18" text-anchor="middle">🏋️</text>
      <text x="62" y="36" font-family="system-ui,sans-serif" font-size="14" font-weight="600" fill="#1B2A4A">Weight Loss</text>
      <text x="62" y="54" font-family="system-ui,sans-serif" font-size="12" fill="#64748B">15K+ providers</text>
      <rect x="12" y="72" width="190" height="6" rx="3" fill="#E2E8F0"/>
      <rect x="12" y="72" width="55" height="6" rx="3" fill="#0EA5E9"/>
    </g>
    <g transform="translate(705,240)">
      <rect width="215" height="100" rx="10" fill="#fff" stroke="#E2E8F0" stroke-width="1.5"/>
      <circle cx="32" cy="40" r="20" fill="#1B2A4A" opacity="0.15"/>
      <text x="32" y="46" font-family="system-ui,sans-serif" font-size="18" text-anchor="middle">🌿</text>
      <text x="62" y="36" font-family="system-ui,sans-serif" font-size="14" font-weight="600" fill="#1B2A4A">Integrative Med</text>
      <text x="62" y="54" font-family="system-ui,sans-serif" font-size="12" fill="#64748B">12K+ providers</text>
      <rect x="12" y="72" width="190" height="6" rx="3" fill="#E2E8F0"/>
      <rect x="12" y="72" width="45" height="6" rx="3" fill="#1B2A4A"/>
    </g>
    <g transform="translate(940,240)">
      <rect width="215" height="100" rx="10" fill="#fff" stroke="#E2E8F0" stroke-width="1.5"/>
      <circle cx="32" cy="40" r="20" fill="#0EA5E9" opacity="0.15"/>
      <text x="32" y="46" font-family="system-ui,sans-serif" font-size="18" text-anchor="middle">💎</text>
      <text x="62" y="36" font-family="system-ui,sans-serif" font-size="14" font-weight="600" fill="#1B2A4A">Plastic Surgery</text>
      <text x="62" y="54" font-family="system-ui,sans-serif" font-size="12" fill="#64748B">10K+ providers</text>
      <rect x="12" y="72" width="190" height="6" rx="3" fill="#E2E8F0"/>
      <rect x="12" y="72" width="40" height="6" rx="3" fill="#0EA5E9"/>
    </g>
  </g>
  <!-- Bottom summary -->
  <g transform="translate(40,460)">
    <rect width="1120" height="140" rx="12" fill="#1B2A4A"/>
    <text x="560" y="36" font-family="system-ui,sans-serif" font-size="18" font-weight="700" fill="#fff" text-anchor="middle">Complete Coverage Across Healthcare</text>
    <g transform="translate(80,60)">
      <text x="0" y="24" font-family="system-ui,sans-serif" font-size="36" font-weight="800" fill="#0EA5E9">140+</text>
      <text x="0" y="48" font-family="system-ui,sans-serif" font-size="13" fill="#94A3B8">Provider Specialties</text>
    </g>
    <g transform="translate(340,60)">
      <text x="0" y="24" font-family="system-ui,sans-serif" font-size="36" font-weight="800" fill="#fff">2.4M+</text>
      <text x="0" y="48" font-family="system-ui,sans-serif" font-size="13" fill="#94A3B8">Individual Providers</text>
    </g>
    <g transform="translate(620,60)">
      <text x="0" y="24" font-family="system-ui,sans-serif" font-size="36" font-weight="800" fill="#16a34a">50</text>
      <text x="0" y="48" font-family="system-ui,sans-serif" font-size="13" fill="#94A3B8">States + DC</text>
    </g>
    <g transform="translate(860,60)">
      <text x="0" y="24" font-family="system-ui,sans-serif" font-size="36" font-weight="800" fill="#0EA5E9">Weekly</text>
      <text x="0" y="48" font-family="system-ui,sans-serif" font-size="13" fill="#94A3B8">Data Updates</text>
    </g>
  </g>
</svg>