<svg xmlns="http://www.w3.org/2000/svg" viewBox="0 0 1200 630" fill="none">
  <rect width="1200" height="630" fill="#F8FAFC"/>
  <rect x="60" y="60" width="480" height="510" rx="16" fill="#1B2A4A"/>
  <rect x="80" y="80" width="440" height="60" rx="8" fill="#0EA5E9" opacity="0.2"/>
  <text x="100" y="118" font-family="system-ui,sans-serif" font-size="22" font-weight="700" fill="#0EA5E9">Provider Contact Database</text>
  <g transform="translate(80,160)">
    <rect width="440" height="44" rx="6" fill="rgba(255,255,255,0.08)"/>
    <circle cx="22" cy="22" r="14" fill="#0EA5E9" opacity="0.3"/>
    <text x="48" y="28" font-family="system-ui,sans-serif" font-size="15" fill="#CBD5E1">Dr. Sarah Mitchell, DDS</text>
    <text x="300" y="28" font-family="system-ui,sans-serif" font-size="13" fill="#64748B">Dental</text>
  </g>
  <g transform="translate(80,214)">
    <rect width="440" height="44" rx="6" fill="rgba(255,255,255,0.05)"/>
    <circle cx="22" cy="22" r="14" fill="#16a34a" opacity="0.3"/>
    <text x="48" y="28" font-family="system-ui,sans-serif" font-size="15" fill="#CBD5E1">Dr. James Park, MD</text>
    <text x="300" y="28" font-family="system-ui,sans-serif" font-size="13" fill="#64748B">Orthopedics</text>
  </g>
  <g transform="translate(80,268)">
    <rect width="440" height="44" rx="6" fill="rgba(255,255,255,0.08)"/>
    <circle cx="22" cy="22" r="14" fill="#0EA5E9" opacity="0.3"/>
    <text x="48" y="28" font-family="system-ui,sans-serif" font-size="15" fill="#CBD5E1">Dr. Lisa Chen, PhD</text>
    <text x="300" y="28" font-family="system-ui,sans-serif" font-size="13" fill="#64748B">Mental Health</text>
  </g>
  <g transform="translate(80,322)">
    <rect width="440" height="44" rx="6" fill="rgba(255,255,255,0.05)"/>
    <circle cx="22" cy="22" r="14" fill="#16a34a" opacity="0.3"/>
    <text x="48" y="28" font-family="system-ui,sans-serif" font-size="15" fill="#CBD5E1">Dr. Robert Kim, DO</text>
    <text x="300" y="28" font-family="system-ui,sans-serif" font-size="13" fill="#64748B">Primary Care</text>
  </g>
  <g transform="translate(80,376)">
    <rect width="440" height="44" rx="6" fill="rgba(255,255,255,0.08)"/>
    <circle cx="22" cy="22" r="14" fill="#0EA5E9" opacity="0.3"/>
    <text x="48" y="28" font-family="system-ui,sans-serif" font-size="15" fill="#CBD5E1">Dr. Maria Santos, DC</text>
    <text x="300" y="28" font-family="system-ui,sans-serif" font-size="13" fill="#64748B">Chiropractic</text>
  </g>
  <rect x="80" y="440" width="120" height="36" rx="6" fill="#0EA5E9"/>
  <text x="105" y="464" font-family="system-ui,sans-serif" font-size="14" font-weight="600" fill="#fff">Export</text>
  <rect x="210" y="440" width="120" height="36" rx="6" fill="rgba(14,165,233,0.15)"/>
  <text x="230" y="464" font-family="system-ui,sans-serif" font-size="14" font-weight="600" fill="#0EA5E9">Enrich</text>
  <rect x="80" y="500" width="440" height="50" rx="8" fill="rgba(255,255,255,0.05)"/>
  <text x="100" y="530" font-family="system-ui,sans-serif" font-size="13" fill="#94A3B8">2.4M+ verified providers across 140+ specialties</text>
  <g transform="translate(620,80)">
    <rect width="520" height="200" rx="12" fill="#fff" stroke="#E2E8F0" stroke-width="1.5"/>
    <text x="24" y="36" font-family="system-ui,sans-serif" font-size="14" font-weight="700" fill="#1B2A4A">Data Fields</text>
    <g transform="translate(24,56)">
      <circle cx="8" cy="8" r="8" fill="#0EA5E9" opacity="0.2"/>
      <circle cx="8" cy="8" r="4" fill="#0EA5E9"/>
      <text x="24" y="12" font-family="system-ui,sans-serif" font-size="13" fill="#334155">NPI Number</text>
    </g>
    <g transform="translate(24,84)">
      <circle cx="8" cy="8" r="8" fill="#0EA5E9" opacity="0.2"/>
      <circle cx="8" cy="8" r="4" fill="#0EA5E9"/>
      <text x="24" y="12" font-family="system-ui,sans-serif" font-size="13" fill="#334155">Direct Email</text>
    </g>
    <g transform="translate(24,112)">
      <circle cx="8" cy="8" r="8" fill="#0EA5E9" opacity="0.2"/>
      <circle cx="8" cy="8" r="4" fill="#0EA5E9"/>
      <text x="24" y="12" font-family="system-ui,sans-serif" font-size="13" fill="#334155">Phone Number</text>
    </g>
    <g transform="translate(200,56)">
      <circle cx="8" cy="8" r="8" fill="#16a34a" opacity="0.2"/>
      <circle cx="8" cy="8" r="4" fill="#16a34a"/>
      <text x="24" y="12" font-family="system-ui,sans-serif" font-size="13" fill="#334155">Practice Address</text>
    </g>
    <g transform="translate(200,84)">
      <circle cx="8" cy="8" r="8" fill="#16a34a" opacity="0.2"/>
      <circle cx="8" cy="8" r="4" fill="#16a34a"/>
      <text x="24" y="12" font-family="system-ui,sans-serif" font-size="13" fill="#334155">Specialty Code</text>
    </g>
    <g transform="translate(200,112)">
      <circle cx="8" cy="8" r="8" fill="#16a34a" opacity="0.2"/>
      <circle cx="8" cy="8" r="4" fill="#16a34a"/>
      <text x="24" y="12" font-family="system-ui,sans-serif" font-size="13" fill="#334155">Practice Size</text>
    </g>
  </g>
  <g transform="translate(620,310)">
    <rect width="250" height="250" rx="12" fill="#fff" stroke="#E2E8F0" stroke-width="1.5"/>
    <text x="24" y="36" font-family="system-ui,sans-serif" font-size="14" font-weight="700" fill="#1B2A4A">Coverage</text>
    <text x="24" y="80" font-family="system-ui,sans-serif" font-size="42" font-weight="800" fill="#0EA5E9">50</text>
    <text x="100" y="80" font-family="system-ui,sans-serif" font-size="16" fill="#64748B">States</text>
    <text x="24" y="130" font-family="system-ui,sans-serif" font-size="42" font-weight="800" fill="#1B2A4A">140+</text>
    <text x="145" y="130" font-family="system-ui,sans-serif" font-size="16" fill="#64748B">Specialties</text>
    <text x="24" y="180" font-family="system-ui,sans-serif" font-size="42" font-weight="800" fill="#16a34a">95%</text>
    <text x="125" y="180" font-family="system-ui,sans-serif" font-size="16" fill="#64748B">Accuracy</text>
    <text x="24" y="230" font-family="system-ui,sans-serif" font-size="42" font-weight="800" fill="#0EA5E9">2.4M</text>
    <text x="150" y="230" font-family="system-ui,sans-serif" font-size="16" fill="#64748B">Providers</text>
  </g>
  <g transform="translate(890,310)">
    <rect width="250" height="250" rx="12" fill="#fff" stroke="#E2E8F0" stroke-width="1.5"/>
    <text x="24" y="36" font-family="system-ui,sans-serif" font-size="14" font-weight="700" fill="#1B2A4A">Verification</text>
    <rect x="24" y="52" width="200" height="12" rx="6" fill="#E2E8F0"/>
    <rect x="24" y="52" width="170" height="12" rx="6" fill="#16a34a"/>
    <text x="24" y="82" font-family="system-ui,sans-serif" font-size="12" fill="#64748B">NPI Verified: 85%</text>
    <rect x="24" y="102" width="200" height="12" rx="6" fill="#E2E8F0"/>
    <rect x="24" y="102" width="180" height="12" rx="6" fill="#0EA5E9"/>
    <text x="24" y="132" font-family="system-ui,sans-serif" font-size="12" fill="#64748B">Email Verified: 90%</text>
    <rect x="24" y="152" width="200" height="12" rx="6" fill="#E2E8F0"/>
    <rect x="24" y="152" width="190" height="12" rx="6" fill="#1B2A4A"/>
    <text x="24" y="182" font-family="system-ui,sans-serif" font-size="12" fill="#64748B">Phone Active: 95%</text>
    <rect x="24" y="202" width="200" height="12" rx="6" fill="#E2E8F0"/>
    <rect x="24" y="202" width="160" height="12" rx="6" fill="#0EA5E9"/>
    <text x="24" y="232" font-family="system-ui,sans-serif" font-size="12" fill="#64748B">Address Current: 80%</text>
  </g>
</svg>