<svg xmlns="http://www.w3.org/2000/svg" viewBox="0 0 1200 630" fill="none">
  <rect width="1200" height="630" fill="#F8FAFC"/>

  <!-- Title -->
  <text x="600" y="50" font-family="system-ui,sans-serif" font-size="24" font-weight="700" fill="#1B2A4A" text-anchor="middle">Provider Segmentation Filters</text>

  <!-- Filter panel (left) -->
  <rect x="60" y="80" width="380" height="490" rx="16" fill="#fff" stroke="#E2E8F0" stroke-width="1.5"/>
  <rect x="60" y="80" width="380" height="50" rx="16" fill="#1B2A4A"/>
  <rect x="60" y="114" width="380" height="16" fill="#1B2A4A"/>
  <text x="250" y="112" font-family="system-ui,sans-serif" font-size="16" font-weight="700" fill="#fff" text-anchor="middle">Build Your Target List</text>

  <!-- Specialty filter -->
  <text x="90" y="168" font-family="system-ui,sans-serif" font-size="13" font-weight="700" fill="#1B2A4A">SPECIALTY</text>
  <rect x="90" y="178" width="320" height="36" rx="8" fill="#F8FAFC" stroke="#E2E8F0" stroke-width="1"/>
  <text x="106" y="201" font-family="system-ui,sans-serif" font-size="13" fill="#334155">Dental, Chiropractic, Mental Health</text>
  <rect x="370" y="186" width="20" height="20" rx="4" fill="#0EA5E9" opacity="0.15"/>
  <text x="375" y="201" font-family="system-ui,sans-serif" font-size="12" fill="#0EA5E9">3</text>

  <!-- Geography filter -->
  <text x="90" y="248" font-family="system-ui,sans-serif" font-size="13" font-weight="700" fill="#1B2A4A">GEOGRAPHY</text>
  <rect x="90" y="258" width="320" height="36" rx="8" fill="#F8FAFC" stroke="#E2E8F0" stroke-width="1"/>
  <text x="106" y="281" font-family="system-ui,sans-serif" font-size="13" fill="#334155">Texas, Florida, California</text>
  <rect x="370" y="266" width="20" height="20" rx="4" fill="#16a34a" opacity="0.15"/>
  <text x="375" y="281" font-family="system-ui,sans-serif" font-size="12" fill="#16a34a">3</text>

  <!-- Practice Size filter -->
  <text x="90" y="328" font-family="system-ui,sans-serif" font-size="13" font-weight="700" fill="#1B2A4A">PRACTICE SIZE</text>
  <g transform="translate(90,340)">
    <rect width="100" height="28" rx="14" fill="#0EA5E9" opacity="0.12"/>
    <text x="50" y="19" font-family="system-ui,sans-serif" font-size="12" fill="#0EA5E9" text-anchor="middle">Solo (1)</text>
  </g>
  <g transform="translate(200,340)">
    <rect width="100" height="28" rx="14" fill="#0EA5E9"/>
    <text x="50" y="19" font-family="system-ui,sans-serif" font-size="12" fill="#fff" text-anchor="middle">Small (2-5)</text>
  </g>
  <g transform="translate(310,340)">
    <rect width="100" height="28" rx="14" fill="#0EA5E9" opacity="0.12"/>
    <text x="50" y="19" font-family="system-ui,sans-serif" font-size="12" fill="#0EA5E9" text-anchor="middle">Mid (6-20)</text>
  </g>

  <!-- Technology filter -->
  <text x="90" y="408" font-family="system-ui,sans-serif" font-size="13" font-weight="700" fill="#1B2A4A">TECHNOLOGY STACK</text>
  <rect x="90" y="418" width="320" height="36" rx="8" fill="#F8FAFC" stroke="#E2E8F0" stroke-width="1"/>
  <text x="106" y="441" font-family="system-ui,sans-serif" font-size="13" fill="#334155">Dentrix, Open Dental</text>

  <!-- Ownership filter -->
  <text x="90" y="488" font-family="system-ui,sans-serif" font-size="13" font-weight="700" fill="#1B2A4A">OWNERSHIP TYPE</text>
  <g transform="translate(90,500)">
    <rect width="140" height="28" rx="14" fill="#16a34a"/>
    <text x="70" y="19" font-family="system-ui,sans-serif" font-size="12" fill="#fff" text-anchor="middle">Independent</text>
  </g>
  <g transform="translate(240,500)">
    <rect width="80" height="28" rx="14" fill="#16a34a" opacity="0.12"/>
    <text x="40" y="19" font-family="system-ui,sans-serif" font-size="12" fill="#16a34a" text-anchor="middle">DSO</text>
  </g>
  <g transform="translate(330,500)">
    <rect width="80" height="28" rx="14" fill="#16a34a" opacity="0.12"/>
    <text x="40" y="19" font-family="system-ui,sans-serif" font-size="12" fill="#16a34a" text-anchor="middle">PE</text>
  </g>

  <!-- Arrow -->
  <line x1="460" y1="310" x2="520" y2="310" stroke="#0EA5E9" stroke-width="3"/>
  <polygon points="520,300 540,310 520,320" fill="#0EA5E9"/>

  <!-- Results panel (right) -->
  <rect x="560" y="80" width="580" height="490" rx="16" fill="#fff" stroke="#E2E8F0" stroke-width="1.5"/>
  <rect x="560" y="80" width="580" height="50" rx="16" fill="#0EA5E9"/>
  <rect x="560" y="114" width="580" height="16" fill="#0EA5E9"/>
  <text x="850" y="112" font-family="system-ui,sans-serif" font-size="16" font-weight="700" fill="#fff" text-anchor="middle">3,847 Matching Providers</text>

  <!-- Result stats -->
  <g transform="translate(590,150)">
    <rect width="160" height="80" rx="10" fill="#F8FAFC" stroke="#E2E8F0" stroke-width="1"/>
    <text x="80" y="35" font-family="system-ui,sans-serif" font-size="24" font-weight="700" fill="#0EA5E9" text-anchor="middle">2,104</text>
    <text x="80" y="55" font-family="system-ui,sans-serif" font-size="12" fill="#64748B" text-anchor="middle">With email</text>
  </g>
  <g transform="translate(770,150)">
    <rect width="160" height="80" rx="10" fill="#F8FAFC" stroke="#E2E8F0" stroke-width="1"/>
    <text x="80" y="35" font-family="system-ui,sans-serif" font-size="24" font-weight="700" fill="#16a34a" text-anchor="middle">3,201</text>
    <text x="80" y="55" font-family="system-ui,sans-serif" font-size="12" fill="#64748B" text-anchor="middle">With phone</text>
  </g>
  <g transform="translate(950,150)">
    <rect width="160" height="80" rx="10" fill="#F8FAFC" stroke="#E2E8F0" stroke-width="1"/>
    <text x="80" y="35" font-family="system-ui,sans-serif" font-size="24" font-weight="700" fill="#1B2A4A" text-anchor="middle">1,847</text>
    <text x="80" y="55" font-family="system-ui,sans-serif" font-size="12" fill="#64748B" text-anchor="middle">With LinkedIn</text>
  </g>

  <!-- Sample results rows -->
  <g transform="translate(590,260)">
    <rect width="520" height="44" rx="6" fill="#F8FAFC"/>
    <circle cx="22" cy="22" r="14" fill="#0EA5E9" opacity="0.2"/>
    <text x="48" y="18" font-family="system-ui,sans-serif" font-size="14" font-weight="600" fill="#1B2A4A">Bright Smile Dental</text>
    <text x="48" y="35" font-family="system-ui,sans-serif" font-size="11" fill="#64748B">Dental | Austin, TX | Solo | Dentrix</text>
    <rect x="420" y="10" width="80" height="24" rx="12" fill="#16a34a" opacity="0.12"/>
    <text x="460" y="27" font-family="system-ui,sans-serif" font-size="11" fill="#16a34a" text-anchor="middle">Verified</text>
  </g>
  <g transform="translate(590,314)">
    <rect width="520" height="44" rx="6" fill="#fff"/>
    <circle cx="22" cy="22" r="14" fill="#16a34a" opacity="0.2"/>
    <text x="48" y="18" font-family="system-ui,sans-serif" font-size="14" font-weight="600" fill="#1B2A4A">Calm Mind Counseling</text>
    <text x="48" y="35" font-family="system-ui,sans-serif" font-size="11" fill="#64748B">Mental Health | Miami, FL | Small (3) | TherapyNotes</text>
    <rect x="420" y="10" width="80" height="24" rx="12" fill="#16a34a" opacity="0.12"/>
    <text x="460" y="27" font-family="system-ui,sans-serif" font-size="11" fill="#16a34a" text-anchor="middle">Verified</text>
  </g>
  <g transform="translate(590,368)">
    <rect width="520" height="44" rx="6" fill="#F8FAFC"/>
    <circle cx="22" cy="22" r="14" fill="#0EA5E9" opacity="0.2"/>
    <text x="48" y="18" font-family="system-ui,sans-serif" font-size="14" font-weight="600" fill="#1B2A4A">Peak Chiropractic Wellness</text>
    <text x="48" y="35" font-family="system-ui,sans-serif" font-size="11" fill="#64748B">Chiropractic | Los Angeles, CA | Solo | ChiroTouch</text>
    <rect x="420" y="10" width="80" height="24" rx="12" fill="#16a34a" opacity="0.12"/>
    <text x="460" y="27" font-family="system-ui,sans-serif" font-size="11" fill="#16a34a" text-anchor="middle">Verified</text>
  </g>
  <g transform="translate(590,422)">
    <rect width="520" height="44" rx="6" fill="#fff"/>
    <circle cx="22" cy="22" r="14" fill="#16a34a" opacity="0.2"/>
    <text x="48" y="18" font-family="system-ui,sans-serif" font-size="14" font-weight="600" fill="#1B2A4A">Family First Dental Group</text>
    <text x="48" y="35" font-family="system-ui,sans-serif" font-size="11" fill="#64748B">Dental | Houston, TX | Small (4) | Open Dental</text>
    <rect x="420" y="10" width="80" height="24" rx="12" fill="#16a34a" opacity="0.12"/>
    <text x="460" y="27" font-family="system-ui,sans-serif" font-size="11" fill="#16a34a" text-anchor="middle">Verified</text>
  </g>

  <!-- Export button -->
  <rect x="590" y="490" width="160" height="40" rx="8" fill="#0EA5E9"/>
  <text x="670" y="516" font-family="system-ui,sans-serif" font-size="14" font-weight="600" fill="#fff" text-anchor="middle">Export to CSV</text>
  <rect x="770" y="490" width="160" height="40" rx="8" fill="rgba(14,165,233,0.12)"/>
  <text x="850" y="516" font-family="system-ui,sans-serif" font-size="14" font-weight="600" fill="#0EA5E9" text-anchor="middle">Enrich All</text>
</svg>